<svg xmlns="http://www.w3.org/2000/svg" viewBox="0 0 480 280" fill="none">
  <rect width="480" height="280" rx="12" fill="#F8FAFC"/>
  <text x="24" y="32" fill="#334155" font-family="system-ui,sans-serif" font-size="14" font-weight="700">MedMatch · JSON slot-filling</text>
  <rect x="24" y="52" width="180" height="100" rx="8" fill="#F1F5F9" stroke="#CBD5E1"/>
  <text x="36" y="76" fill="#475569" font-size="10" font-weight="600">Free-text order</text>
  <text x="36" y="96" fill="#64748B" font-size="9">"Vancomycin 1g in 250mL NS</text>
  <text x="36" y="110" fill="#64748B" font-size="9">IV q12h"</text>
  <path d="M214 102 L254 102" stroke="#3B82F6" stroke-width="2" marker-end="url(#arr)"/>
  <text x="234" y="94" fill="#3B82F6" font-size="9" text-anchor="middle">LLM</text>
  <rect x="260" y="52" width="196" height="100" rx="8" fill="#EFF6FF" stroke="#93C5FD"/>
  <text x="272" y="72" fill="#1D4ED8" font-size="9" font-weight="600">{</text>
  <text x="280" y="86" fill="#334155" font-size="8">"drug": "vancomycin",</text>
  <text x="280" y="98" fill="#334155" font-size="8">"dose": "1", "unit": "g",</text>
  <text x="280" y="110" fill="#334155" font-size="8">"route": "IV intermittent",</text>
  <text x="280" y="122" fill="#334155" font-size="8">"frequency": "q12h"</text>
  <text x="272" y="136" fill="#1D4ED8" font-size="9" font-weight="600">}</text>
  <rect x="24" y="168" width="100" height="36" rx="6" fill="#DBEAFE" stroke="#93C5FD"/>
  <text x="74" y="190" fill="#1E40AF" font-size="9" text-anchor="middle">Oral solid (40)</text>
  <rect x="132" y="168" width="100" height="36" rx="6" fill="#DBEAFE" stroke="#93C5FD"/>
  <text x="182" y="190" fill="#1E40AF" font-size="9" text-anchor="middle">IV push (17)</text>
  <rect x="240" y="168" width="100" height="36" rx="6" fill="#DBEAFE" stroke="#93C5FD"/>
  <text x="290" y="190" fill="#1E40AF" font-size="9" text-anchor="middle">IV intermit (17)</text>
  <rect x="348" y="168" width="108" height="36" rx="6" fill="#DBEAFE" stroke="#93C5FD"/>
  <text x="402" y="190" fill="#1E40AF" font-size="9" text-anchor="middle">+ route select</text>
  <text x="240" y="248" fill="#64748B" font-size="10" text-anchor="middle">100 prompts · MedMatch score = exact slot match</text>
  <defs><marker id="arr" markerWidth="6" markerHeight="6" refX="5" refY="3" orient="auto"><path d="M0,0 L6,3 L0,6 Z" fill="#3B82F6"/></marker></defs>
</svg>
