<svg xmlns="http://www.w3.org/2000/svg" viewBox="0 0 480 280" fill="none">
  <rect width="480" height="280" rx="12" fill="#F8FAFC"/>
  <text x="24" y="32" fill="#334155" font-family="system-ui,sans-serif" font-size="14" font-weight="700">Rx-Bench - 6 CMM Benchmarks</text>
  <rect x="24" y="48" width="130" height="52" rx="8" fill="#EFF6FF" stroke="#BFDBFE"/>
  <text x="36" y="72" fill="#1D4ED8" font-size="11" font-weight="600">Formulation</text>
  <text x="36" y="88" fill="#64748B" font-size="10">250 cases</text>
  <rect x="168" y="48" width="130" height="52" rx="8" fill="#EFF6FF" stroke="#BFDBFE"/>
  <text x="180" y="72" fill="#1D4ED8" font-size="11" font-weight="600">Drug Order</text>
  <text x="180" y="88" fill="#64748B" font-size="10">250 cases</text>
  <rect x="312" y="48" width="144" height="52" rx="8" fill="#EFF6FF" stroke="#BFDBFE"/>
  <text x="324" y="72" fill="#1D4ED8" font-size="11" font-weight="600">Route Matching</text>
  <text x="324" y="88" fill="#64748B" font-size="10">250 cases</text>
  <rect x="24" y="116" width="130" height="52" rx="8" fill="#EFF6FF" stroke="#BFDBFE"/>
  <text x="36" y="140" fill="#1D4ED8" font-size="11" font-weight="600">DDI ID</text>
  <text x="36" y="156" fill="#64748B" font-size="10">250 cases</text>
  <rect x="168" y="116" width="130" height="52" rx="8" fill="#EFF6FF" stroke="#BFDBFE"/>
  <text x="180" y="140" fill="#1D4ED8" font-size="11" font-weight="600">Renal Dose</text>
  <text x="180" y="156" fill="#64748B" font-size="10">250 cases</text>
  <rect x="312" y="116" width="144" height="52" rx="8" fill="#EFF6FF" stroke="#BFDBFE"/>
  <text x="324" y="140" fill="#1D4ED8" font-size="11" font-weight="600">Drug-Indication</text>
  <text x="324" y="156" fill="#64748B" font-size="10">250 cases</text>
  <path d="M240 188 L240 210" stroke="#94A3B8" stroke-width="2"/>
  <rect x="140" y="210" width="200" height="44" rx="8" fill="#10B981" fill-opacity="0.15" stroke="#10B981"/>
  <text x="240" y="237" fill="#047857" font-size="12" font-weight="700" text-anchor="middle">Clinician-annotated CMM suite</text>
</svg>
